<svg xmlns="http://www.w3.org/2000/svg" width="32" height="32" id="injection"><path fill="#00A78E" style="line-height:normal;text-indent:0;text-align:start;text-decoration-line:none;text-decoration-style:solid;text-decoration-color:#00A78E;text-transform:none;block-progression:tb;white-space:normal;isolation:auto;mix-blend-mode:normal;solid-color:#00A78E;solid-opacity:1" fill-rule="evenodd" d="m22.678 1024.735-.707.707.707.707-2.121 2.121-1.06-1.06a.56.56 0 0 0-.038-.035l-1.023-1.026-.707.707.707.707-10.678 10.678a.5.5 0 0 0-.147.38l.186 3.509-1.186 1.185a.5.5 0 0 0 0 .707l.51.512L5 1046.655l.707.707 2.123-2.12.51.509a.5.5 0 0 0 .707 0l1.185-1.186 3.51.186a.489.489 0 0 0 .38-.147l10.677-10.675.707.707.707-.707-1.06-1.061-1.061-1.062 2.12-2.122.71.708.707-.708-1.063-1.06-2.828-2.828zm.707 2.121 2.12 2.121-2.12 2.121-2.121-2.12zm-4.242 1.416 1.06 1.059 2.828 2.828 1.06 1.063-10.519 10.519-3.168-.168-.808-.807-.807-.806-.166-3.168.62-.62 1.413 1.415.707-.707-1.414-1.414.707-.707 2.123 2.12.707-.706-2.123-2.121.707-.707 1.416 1.414.707-.708-1.416-1.414.707-.707 2.123 2.121.707-.707-2.123-2.12.707-.708 1.416 1.414.707-.707-1.416-1.414.708-.707 2.123 2.121.707-.707-2.122-2.123zm-10.764 14.69.51.511.51.51-.706.707-1.021-1.021z" color="#00A78E" enable-background="accumulate" font-family="sans-serif" font-weight="400" overflow="visible" transform="translate(0 -1020.362)"></path></svg>